# xmcd CD database file
#
# Track frame offsets:
#	150
#	23513
#	47333
#	62521
#	81189
#	120615
#	144769
#	160475
#
# Disc length: 2484 seconds
#
# Revision: 0
# Processed by: cddbd v1.5.2PL0 Copyright (c) Steve Scherf et al.
# Submitted via: CDex 1.94
#
DISCID=5709b208
DTITLE=Peter Autschbach and Ralf Illenberger - Zero Gravity
DYEAR=2017
DGENRE=Jazz
TTITLE0=New Arrival
TTITLE1=Zero Gravity
TTITLE2=Sellie
TTITLE3=Heads Up
TTITLE4=The Truth
TTITLE5=Solstice
TTITLE6=Topaz
TTITLE7=Twilight Dance
EXTD=YEAR: 2017
EXTT0=
EXTT1=
EXTT2=
EXTT3=
EXTT4=
EXTT5=
EXTT6=
EXTT7=
PLAYORDER=
